<?xml version="1.0" standalone="no"?>
<!DOCTYPE svg PUBLIC "-//W3C//DTD SVG 20010904//EN"
 "http://www.w3.org/TR/2001/REC-SVG-20010904/DTD/svg10.dtd">
<svg version="1.0" xmlns="http://www.w3.org/2000/svg"
 width="1000.000000pt" height="1000.000000pt" viewBox="0 0 1000.000000 1000.000000"
 preserveAspectRatio="xMidYMid meet">
<metadata>
Created by potrace 1.14, written by Peter Selinger 2001-2017
</metadata>
<g transform="translate(0.000000,1000.000000) scale(0.100000,-0.100000)"
fill="#000000" stroke="none">
<path d="M5007 9634 c-3 -3 -38 -7 -79 -10 -40 -2 -107 -11 -148 -19 -41 -8
-86 -17 -100 -19 -52 -10 -198 -65 -280 -106 -260 -131 -466 -332 -600 -585
-45 -85 -115 -261 -123 -310 -3 -16 -10 -43 -16 -58 -6 -16 -13 -43 -15 -60
-5 -43 -17 -87 -23 -87 -2 0 -19 11 -36 24 -144 107 -439 237 -607 266 -30 5
-68 12 -85 16 -16 3 -86 7 -155 8 -235 4 -447 -45 -655 -151 -153 -78 -309
-197 -406 -310 -22 -25 -48 -53 -56 -62 -31 -30 -128 -186 -170 -271 -136
-277 -169 -556 -108 -902 22 -130 145 -408 243 -550 34 -50 42 -72 27 -73 -52
-5 -291 -70 -310 -84 -5 -5 -28 -14 -50 -21 -203 -64 -492 -295 -631 -507 -60
-91 -135 -236 -152 -294 -6 -19 -20 -65 -31 -104 -12 -38 -24 -85 -27 -104 -3
-18 -8 -43 -10 -55 -17 -88 -22 -270 -11 -381 32 -305 178 -607 401 -831 108
-107 198 -173 339 -248 94 -50 303 -123 428 -151 l76 -16 -48 -74 c-50 -75
-128 -222 -166 -310 -24 -55 -70 -203 -78 -250 -3 -16 -7 -43 -11 -60 -30
-159 -24 -356 17 -535 92 -399 361 -745 729 -937 96 -51 247 -107 323 -122 29
-6 63 -13 77 -16 99 -22 346 -25 440 -6 30 6 71 13 90 16 129 21 359 120 533
229 60 37 110 66 113 63 3 -2 7 -17 10 -33 3 -24 12 -61 19 -84 1 -3 7 -25 13
-50 7 -25 22 -70 33 -100 11 -30 24 -64 28 -75 18 -49 109 -223 136 -259 17
-23 38 -54 48 -69 10 -16 40 -52 67 -80 27 -29 57 -61 67 -72 35 -39 129 -113
208 -165 176 -115 398 -194 605 -216 66 -7 295 -7 330 1 14 3 39 7 55 10 303
52 594 207 785 420 25 28 48 52 51 55 3 3 29 38 57 78 109 152 188 330 238
535 15 62 31 116 35 121 5 5 22 -2 41 -16 152 -113 427 -232 618 -268 394 -74
810 32 1128 288 186 148 356 385 432 597 11 33 25 67 30 76 10 19 48 205 55
274 6 55 7 217 1 280 -19 206 -125 488 -260 692 -60 91 -61 85 14 97 14 2 45
10 70 17 25 7 50 13 57 15 61 12 230 78 323 127 247 130 462 350 589 603 37
76 96 234 107 286 2 13 7 39 10 58 4 19 9 44 11 55 26 122 21 369 -11 510 -3
17 -8 41 -11 54 -28 149 -171 432 -280 556 -141 159 -272 263 -434 344 -121
61 -213 95 -361 132 -71 18 -130 35 -130 39 0 4 9 15 20 25 11 10 20 23 20 28
0 6 6 18 14 26 49 55 191 355 197 416 1 6 5 18 10 28 6 10 20 70 32 135 19 96
22 145 20 267 -3 182 -2 166 -20 245 -8 36 -17 76 -20 90 -9 49 -62 189 -104
271 -155 310 -453 581 -757 690 -31 11 -66 25 -77 30 -28 13 -200 50 -260 55
-199 20 -451 -2 -565 -49 -14 -6 -27 -11 -30 -12 -106 -28 -302 -125 -440
-218 -60 -41 -66 -43 -67 -24 -2 44 -47 204 -90 315 -96 255 -248 457 -469
630 -23 18 -44 32 -47 32 -4 0 -23 12 -44 26 -154 106 -422 192 -648 209 -49
3 -92 8 -96 10 -3 3 -9 2 -12 -1z m204 -4357 c35 -43 106 -111 137 -133 13 -9
18 -22 16 -41 -5 -36 -5 -179 0 -217 3 -24 -9 -41 -93 -123 l-96 -96 -144 -1
-145 -1 -35 39 c-57 62 -76 81 -111 108 l-33 26 0 143 0 144 94 96 94 96 141
0 142 0 33 -40z"/>
</g>
</svg>
